# xmcd CD database file
#
# Track frame offsets:
#	150
#	17945
#	32952
#	49052
#	66044
#	81792
#	95892
#	108197
#	123734
#	141859
#
# Disc length: 2093 seconds
#
# Revision: 0
# Processed by: cddbd v1.5.2PL0 Copyright (c) Steve Scherf et al.
# Submitted via: jetAudio 7
#
DISCID=8d082b0a
DTITLE=Marlee Scott - Marlee Scott
DYEAR=1900
DGENRE=Country
TTITLE0=Reality
TTITLE1=Been There
TTITLE2=Fight With You
TTITLE3=If Love Isn't Everything
TTITLE4=You're So Sexy
TTITLE5=Yesterday, Today and Tomorrow
TTITLE6=5 O'clock Dance
TTITLE7=I Hold Your Hand
TTITLE8=Miss Your Kiss
TTITLE9=Later On
EXTD=
EXTT0=
EXTT1=
EXTT2=
EXTT3=
EXTT4=
EXTT5=
EXTT6=
EXTT7=
EXTT8=
EXTT9=
PLAYORDER=
